<svg width="16" height="16" viewBox="0 0 16 16" fill="none" xmlns="http://www.w3.org/2000/svg">
<path fill-rule="evenodd" clip-rule="evenodd" d="M8 16C3.58172 16 0 12.4183 0 8C0 3.58172 3.58172 0 8 0C12.4183 0 16 3.58172 16 8C16 12.4183 12.4183 16 8 16ZM6.58383 5.64086C6.3294 5.38643 5.90354 5.38268 5.64319 5.64303C5.38103 5.90519 5.38187 6.32452 5.64102 6.58367L7.05741 8.00005L5.64102 9.41643C5.38659 9.67087 5.38284 10.0967 5.64319 10.3571C5.90536 10.6192 6.32468 10.6184 6.58383 10.3592L8.00021 8.94286L9.4166 10.3592C9.67103 10.6137 10.0969 10.6174 10.3572 10.3571C10.6194 10.0949 10.6186 9.67559 10.3594 9.41643L8.94302 8.00005L10.3594 6.58367C10.6138 6.32924 10.6176 5.90338 10.3572 5.64303C10.0951 5.38087 9.67575 5.38171 9.4166 5.64086L8.00021 7.05724L6.58383 5.64086ZM14.6667 8C14.6667 11.6819 11.6819 14.6667 8 14.6667C4.3181 14.6667 1.33333 11.6819 1.33333 8C1.33333 4.3181 4.3181 1.33333 8 1.33333C11.6819 1.33333 14.6667 4.3181 14.6667 8Z" fill="#FFF"/>
</svg>