<svg width="158" height="22" viewBox="0 0 158 22" fill="none" xmlns="http://www.w3.org/2000/svg">
<path d="M32.2476 0.879883C31.0594 2.08257 30.6942 2.72836 29.8414 4.54677L21.9548 22.0001L16.3738 9.76799L10.8594 22.0001L2.90755 4.54677C2.08466 2.72836 1.72211 2.1414 0.5 0.879883H10.5851C10.213 1.16813 9.91487 1.53509 9.71399 1.95227C9.5131 2.36944 9.41483 2.82558 9.42681 3.28525C9.42681 3.98987 9.54902 4.48794 9.94552 5.3978L12.9614 12.3263L15.1856 7.16392L13.9432 4.37029C13.2126 2.75712 12.6939 1.75575 11.9634 0.879883H22.0485C21.0735 1.49561 20.586 2.28781 20.586 3.28525C20.586 3.98987 20.7068 4.48794 21.1034 5.3978L24.1803 12.3263L27.2275 5.40433C27.624 4.48925 27.7706 3.99641 27.7706 3.32055C27.7706 2.44076 27.1311 1.3858 26.3991 0.886419L32.2476 0.879883Z" fill="#333333"/>
<path d="M42.7305 16.4259C41.7556 20.5033 39.4105 21.8524 35.9981 21.8524C32.0982 21.8524 28.4414 19.1254 28.4414 13.9918C28.4414 9.0634 31.6705 5.573 35.9098 5.573C38.6827 5.573 42.5825 6.95216 42.5825 12.763H33.3746C34.0142 15.8716 36.1162 17.4848 39.0411 17.4848C40.5348 17.4822 41.5709 17.2181 42.7305 16.4259ZM33.1913 10.7354V11.1119H37.2134C37.2134 8.17838 36.5426 7.26983 35.2635 7.26983C33.9531 7.27506 33.1913 8.53527 33.1913 10.7354Z" fill="#333333"/>
<path d="M61.198 6.1886C58.6682 3.87212 56.1738 2.66944 54.251 2.66944V15.6114C54.251 18.2259 54.9517 19.8064 56.8106 21.4196H45.2875C47.1465 19.8064 47.8471 18.222 47.8471 15.6114V2.66944C45.9271 2.66944 43.3077 3.87212 40.9001 6.1886L42.1195 0C42.9411 0.615723 44.4646 0.879791 46.1715 0.879791H55.9212C57.6281 0.879791 59.1503 0.618337 59.9732 0L61.198 6.1886Z" fill="#333333"/>
<path d="M68.1993 21.4131H58.5107C59.6988 20.064 60.2162 19.1842 60.2162 17.0429V12.2884C60.2162 10.6164 59.9731 9.82416 58.8148 8.79665L58.144 8.21099L65.4577 5.57031V9.23981C66.1583 7.12727 67.2542 5.57293 69.052 5.57293C70.5145 5.57293 71.4596 6.57037 71.4596 8.03712C71.4596 9.59146 70.4534 10.6765 69.052 10.6765C68.7479 10.0019 68.0159 9.68036 67.3465 9.68036C66.8033 9.68036 66.2792 9.82677 66.0049 10.0908V16.8638C66.0049 19.1254 66.4014 19.7398 68.1993 21.4131Z" fill="#333333"/>
<path d="M88.2201 18.715C87.8549 20.5621 86.2702 21.8524 84.1071 21.8524C82.2793 21.8524 80.878 20.7974 80.4516 19.5947C79.5296 21.1778 77.8268 21.8524 75.9991 21.8524C73.4693 21.8524 71.7638 20.2392 71.7638 18.0391C71.7638 15.4586 73.6839 13.6689 78.1011 12.6427L80.1379 12.1734V9.53271C80.1379 7.89078 79.5595 7.21623 78.5234 7.21623C77.5484 7.21623 76.9089 7.83195 76.9089 8.68299C76.9089 9.41636 77.2741 9.88567 77.9137 10.4713C77.9137 11.4099 76.3901 12.3786 74.8068 12.3786C74.4567 12.3859 74.1086 12.3249 73.7836 12.1993C73.4586 12.0736 73.1633 11.8859 72.9157 11.6475C72.668 11.4091 72.473 11.1249 72.3425 10.812C72.212 10.4991 72.1486 10.164 72.1562 9.82684C72.1562 7.33389 75.02 5.573 79.2173 5.573C83.6047 5.573 85.9212 7.36265 85.9212 11.3511V17.6587C85.9212 18.4509 86.4087 18.9777 87.1705 18.9777C87.6376 18.9777 87.973 18.8901 88.2201 18.715ZM80.1461 18.2744V13.5512L79.7509 13.6689C78.4406 14.0506 77.5566 14.8716 77.5566 16.5148C77.5566 17.9227 78.135 18.7725 79.0801 18.7725C79.5636 18.7725 79.9601 18.6261 80.142 18.2744H80.1461Z" fill="#333333"/>
<path d="M96.4733 21.4131H88.277C89.1298 20.6209 89.6784 19.4522 89.6784 17.0429V12.2884C89.6784 10.6739 89.4652 9.85292 88.4563 8.94437L87.7556 8.32734L95.3109 5.57031V7.85803C96.1949 6.4501 98.0539 5.57031 99.9115 5.57031C102.836 5.57031 104.452 7.09589 104.452 9.82416V18.0403C104.452 19.7123 104.909 20.7398 105.64 21.4144H97.6615C98.4531 20.681 98.6663 19.6836 98.6663 18.8914V10.5013C98.6663 9.26857 98.2399 8.65285 97.0518 8.65285C96.7605 8.64531 96.4705 8.69329 96.1986 8.79402C95.9266 8.89476 95.678 9.04626 95.4671 9.23981V18.8901C95.4671 19.6823 95.6803 20.6549 96.4733 21.4131Z" fill="#333333"/>
<path d="M107.137 20.5621V15.5461C109.33 18.3032 111.618 19.8287 113.748 19.8287C114.783 19.8287 115.271 19.3058 115.271 18.5672C115.271 17.8639 114.876 17.4534 114.175 17.1894L110.644 15.9279C107.929 14.9592 106.706 13.346 106.706 10.9406C106.706 7.83196 109.357 5.573 113.136 5.573C115.173 5.573 117.432 6.1312 118.559 6.9221V11.2047C117.158 8.8294 114.873 7.50906 112.649 7.50906C111.522 7.50906 110.942 7.86072 110.942 8.53526C110.942 9.20981 111.368 9.47388 112.313 9.8556L116.49 11.5041C118.592 12.325 119.537 14.0559 119.537 16.1383C119.537 19.5699 116.948 21.8576 113.046 21.8576C111.002 21.8499 108.984 21.4076 107.137 20.5621Z" fill="#333333"/>
<path d="M120.146 7.48018L121.911 4.86565C124.168 1.58441 125.97 0 129.013 0C131.389 0 132.913 0.997445 132.913 2.49296C132.913 3.78454 131.815 4.72316 129.5 4.72316C129.5 2.90344 128.433 2.22889 127.367 2.22889C126.301 2.22889 125.478 2.96227 125.478 4.16495C125.478 4.98592 125.934 5.80819 127.336 6.01343H130.722L129.5 7.48018H127.428V16.1918C127.428 17.8337 127.7 19.3005 129.465 20.7973L130.197 21.413H119.688C120.91 20.2365 121.638 18.7985 121.638 16.6899V7.48018H120.146Z" fill="#333333"/>
<path d="M144.03 16.4259C143.055 20.5033 140.708 21.8524 137.296 21.8524C133.396 21.8524 129.74 19.1254 129.74 13.9918C129.74 9.0634 132.97 5.573 137.209 5.573C139.982 5.573 143.882 6.95216 143.882 12.763H134.679C135.319 15.8716 137.421 17.4848 140.346 17.4848C141.839 17.4822 142.875 17.2181 144.03 16.4259ZM134.496 10.7354V11.1119H138.518C138.518 8.17838 137.847 7.26983 136.568 7.26983C135.258 7.27506 134.496 8.53527 134.496 10.7354Z" fill="#333333"/>
<path d="M154.24 21.4132H144.55C145.738 20.0641 146.257 19.1843 146.257 17.043V12.2884C146.257 10.6164 146.012 9.82423 144.855 8.79672L144.184 8.21106L151.498 5.573V9.23988C152.199 7.12734 153.296 5.573 155.094 5.573C156.556 5.573 157.5 6.57044 157.5 8.0372C157.5 9.59154 156.495 10.6766 155.094 10.6766C154.788 10.002 154.058 9.68043 153.387 9.68043C152.844 9.68043 152.321 9.82684 152.047 10.0909V16.8639C152.041 19.1254 152.449 19.7399 154.24 21.4132Z" fill="#333333"/>
</svg>