<svg width="140" height="21" viewBox="0 0 140 21" fill="none" xmlns="http://www.w3.org/2000/svg">
<g clip-path="url(#clip0_149_10745)">
<g clip-path="url(#clip1_149_10745)">
<path d="M28.2879 1.29614C27.2232 2.38943 26.9086 2.97172 26.1464 4.62354L19.1167 20.5L14.144 9.37695L9.23169 20.5L2.14156 4.63542C1.41561 2.98361 1.08893 2.44885 0 1.29614H8.98971C8.31215 1.85467 7.96128 2.57957 7.96128 3.48272C7.96128 4.12443 8.07017 4.576 8.42105 5.40785L11.1071 11.7061L13.0913 7.01213L11.9782 4.46905C11.3249 3.00737 10.8651 2.09234 10.2117 1.29614H19.2014C18.3303 1.85467 17.8947 2.57957 17.8947 3.48272C17.8947 4.12443 18.0036 4.576 18.3545 5.40785L21.101 11.7061L23.8112 5.40785C24.1621 4.576 24.2952 4.12443 24.2952 3.51837C24.2952 2.72217 23.7265 1.7596 23.0732 1.30803H28.2879V1.29614Z" fill="#fff"/>
<path d="M37.6283 15.4376C36.7571 19.1452 34.664 20.3692 31.6271 20.3692C28.1546 20.3692 24.8999 17.8856 24.8999 13.2272C24.8999 8.74712 27.7795 5.57422 31.5545 5.57422C34.0227 5.57422 37.4952 6.82199 37.4952 12.1102H29.2919C29.8606 14.9385 31.7359 16.4001 34.3373 16.4001C35.6682 16.3882 36.5998 16.1506 37.6283 15.4376ZM29.1346 10.2563V10.601H32.716C32.716 7.93904 32.1231 7.1072 30.9737 7.1072C29.8122 7.1072 29.1346 8.2599 29.1346 10.2563Z" fill="#fff"/>
<path d="M54.0833 6.12091C51.8329 4.01753 49.6066 2.92424 47.8885 2.92424V14.6889C47.8885 17.0657 48.5177 18.5036 50.1632 19.9652H39.9031C41.5606 18.5036 42.1777 17.0538 42.1777 14.6889V2.92424C40.4717 2.92424 38.1366 4.01753 35.9829 6.12091L37.0718 0.5C37.8099 1.05853 39.165 1.2962 40.6774 1.2962H49.3646C50.8891 1.2962 52.2442 1.05853 52.9702 0.5L54.0833 6.12091Z" fill="#fff"/>
<path d="M60.327 19.9653H51.6881C52.7528 18.7413 53.2126 17.9332 53.2126 15.9962V11.6706C53.2126 10.1495 52.9948 9.43647 51.9664 8.49767L51.3735 7.96291L57.895 5.56244V8.88983C58.5242 6.9647 59.4921 5.56244 61.1013 5.56244C62.408 5.56244 63.2429 6.46559 63.2429 7.79654C63.2429 9.21069 62.3475 10.197 61.1013 10.197C60.8351 9.57907 60.1818 9.29387 59.5768 9.29387C59.0928 9.29387 58.621 9.42459 58.379 9.66226V15.8298C58.3669 17.8857 58.7178 18.4442 60.327 19.9653Z" fill="#fff"/>
<path d="M78.1608 17.5172C77.8342 19.1928 76.4185 20.3692 74.4948 20.3692C72.8614 20.3692 71.6152 19.4067 71.2401 18.3134C70.4294 19.7513 68.9049 20.3692 67.2715 20.3692C65.0211 20.3692 63.4966 18.9076 63.4966 16.8992C63.4966 14.5582 65.2026 12.9301 69.1469 11.9913L70.9618 11.5635V9.16305C70.9618 7.66572 70.4415 7.05966 69.522 7.05966C68.6508 7.05966 68.0822 7.61819 68.0822 8.39062C68.0822 9.0561 68.4089 9.4839 68.9775 10.0187C68.9775 10.8743 67.6224 11.7537 66.2068 11.7537C64.8275 11.7537 63.8475 10.7079 63.8475 9.43637C63.8475 7.16661 66.4004 5.57422 70.1512 5.57422C74.0592 5.57422 76.1282 7.20226 76.1282 10.8267V16.5546C76.1282 17.2795 76.5637 17.7549 77.2413 17.7549C77.6406 17.7549 77.943 17.6717 78.1608 17.5172ZM70.9618 17.1131V12.8232L70.6109 12.9301C69.4494 13.2748 68.6509 14.0234 68.6509 15.5207C68.6509 16.8042 69.1711 17.5766 70.006 17.5766C70.4536 17.5647 70.8045 17.434 70.9618 17.1131Z" fill="#fff"/>
<path d="M85.5171 19.9653H78.2092C78.9714 19.2404 79.4554 18.1828 79.4554 15.9962V11.6706C79.4554 10.2089 79.2618 9.46024 78.3665 8.62839L77.7373 8.06987L84.4645 5.56244V7.64206C85.2509 6.35864 86.9085 5.56244 88.5661 5.56244C91.1674 5.56244 92.6072 6.95281 92.6072 9.42459V16.8993C92.6072 18.4204 93.0186 19.3473 93.672 19.9653H86.5576C87.2594 19.2998 87.453 18.3967 87.453 17.6718V10.0425C87.453 8.92548 87.0779 8.36695 86.0132 8.36695C85.4203 8.36695 84.9242 8.58086 84.5976 8.90171V17.6718C84.6218 18.3967 84.8032 19.276 85.5171 19.9653Z" fill="#fff"/>
<path d="M95.0147 19.1926V14.6293C96.9748 17.1367 99.0075 18.5271 100.907 18.5271C101.827 18.5271 102.262 18.0518 102.262 17.3863C102.262 16.7446 101.911 16.3762 101.282 16.1385L98.1363 14.9977C95.7165 14.1183 94.6396 12.6566 94.6396 10.4701C94.6396 7.64179 96.999 5.58594 100.363 5.58594C102.177 5.58594 104.186 6.09693 105.19 6.80994V10.7077C103.944 8.54494 101.899 7.3447 99.927 7.3447C98.9228 7.3447 98.4025 7.66556 98.4025 8.2835C98.4025 8.90144 98.7776 9.13912 99.6245 9.48374L103.351 10.9573C105.226 11.706 106.061 13.2746 106.061 15.176C106.061 18.3013 103.75 20.3809 100.278 20.3809C98.5477 20.3691 96.757 19.9888 95.0147 19.1926Z" fill="#fff"/>
<path d="M106.606 7.29739L108.179 4.92068C110.187 1.93791 111.796 0.5 114.507 0.5C116.624 0.5 117.979 1.40315 117.979 2.76976C117.979 3.94623 116.999 4.80184 114.942 4.80184C114.942 3.15003 113.986 2.53209 113.042 2.53209C112.087 2.53209 111.361 3.19756 111.361 4.29085C111.361 5.03951 111.772 5.78818 113.018 5.96643H116.031L114.942 7.29739H113.091V15.2118C113.091 16.7092 113.333 18.0401 114.906 19.3948L115.559 19.9534H106.194C107.283 18.8838 107.937 17.5766 107.937 15.6634V7.29739H106.606Z" fill="#fff"/>
<path d="M127.889 15.4376C127.017 19.1452 124.924 20.3692 121.887 20.3692C118.415 20.3692 115.16 17.8856 115.16 13.2272C115.16 8.74712 118.04 5.57422 121.815 5.57422C124.283 5.57422 127.755 6.82199 127.755 12.1102H119.552C120.121 14.9385 121.996 16.4001 124.598 16.4001C125.941 16.3882 126.86 16.1506 127.889 15.4376ZM119.395 10.2563V10.601H122.976C122.976 7.93904 122.383 7.1072 121.234 7.1072C120.072 7.1072 119.395 8.2599 119.395 10.2563Z" fill="#fff"/>
<path d="M136.987 19.9653H128.348C129.413 18.7413 129.873 17.9332 129.873 15.9962V11.6706C129.873 10.1495 129.655 9.43647 128.627 8.49767L128.034 7.96291L134.555 5.56244V8.88983C135.184 6.9647 136.152 5.56244 137.761 5.56244C139.068 5.56244 139.903 6.46559 139.903 7.79654C139.903 9.21069 139.008 10.197 137.761 10.197C137.495 9.57907 136.842 9.29387 136.237 9.29387C135.753 9.29387 135.281 9.42459 135.039 9.66226V15.8298C135.027 17.8857 135.378 18.4442 136.987 19.9653Z" fill="#fff"/>
</g>
</g>
<defs>
<clipPath id="clip0_149_10745">
<rect width="140" height="20" fill="white" transform="translate(0 0.5)"/>
</clipPath>
<clipPath id="clip1_149_10745">
<rect width="139.891" height="20" fill="white" transform="translate(0 0.5)"/>
</clipPath>
</defs>
</svg>